<svg width="303" height="262" viewBox="0 0 303 262" fill="none" xmlns="http://www.w3.org/2000/svg">
<path fill-rule="evenodd" clip-rule="evenodd" d="M299.715 129.434V129.434L300.218 131.738L300.683 134.055L301.109 136.384L301.495 138.725L301.84 141.076L302.142 143.438L302.401 145.809L302.614 148.187L302.782 150.573L302.903 152.964L302.976 155.361L303 157.76L302.974 160.162L302.898 162.565L302.769 164.968L302.589 167.368L302.356 169.766L302.069 172.159L301.728 174.546L301.332 176.926L300.882 179.296L300.376 181.656L299.815 184.004L299.197 186.339L298.524 188.658L297.795 190.96L297.01 193.245L296.169 195.509L295.272 197.752L294.32 199.972L293.313 202.167L292.251 204.337L291.135 206.479L289.965 208.592L288.742 210.674L287.467 212.725L286.14 214.742L284.762 216.725L283.334 218.671L281.858 220.581L280.333 222.452L278.762 224.283L277.145 226.073L275.483 227.822L273.779 229.528L272.032 231.189L270.246 232.807L268.42 234.378L266.557 235.904L264.658 237.382L262.724 238.813L260.758 240.196L258.762 241.531L256.736 242.817L254.682 244.054L252.603 245.243L250.5 246.382L248.375 247.472L246.229 248.513L244.065 249.505L241.884 250.449L239.688 251.344L237.48 252.192L235.259 252.993L233.03 253.748L230.792 254.456L228.548 255.12L226.3 255.739L224.048 256.315L221.796 256.848L219.543 257.341L217.292 257.793L215.045 258.206L212.801 258.58L210.563 258.919L208.332 259.221L206.11 259.49L203.896 259.725L201.693 259.929L199.5 260.103L197.32 260.248L195.153 260.367L193 260.46L190.862 260.529L188.739 260.577L186.632 260.605L184.542 260.615L182.468 260.608L180.413 260.587L178.375 260.554L176.355 260.51L174.353 260.457L172.37 260.397L170.404 260.332L168.456 260.263L166.526 260.193L164.613 260.121L162.716 260.051L160.836 259.983L158.972 259.919L157.122 259.859L155.286 259.806L153.464 259.759L151.654 259.72L149.856 259.689L148.069 259.667L146.291 259.655L144.521 259.653L142.76 259.661L141.005 259.679L139.255 259.707L137.51 259.746L135.768 259.795L134.028 259.853L132.29 259.921L130.552 259.998L128.813 260.084L127.072 260.177L125.329 260.277L123.583 260.384L121.832 260.496L120.076 260.614L118.314 260.735L116.546 260.858L114.771 260.983L112.987 261.108L111.196 261.232L109.396 261.352L107.586 261.468L105.768 261.577L103.941 261.678L102.104 261.768L100.258 261.847L98.4028 261.911L96.539 261.96L94.6669 261.99L92.7869 262L90.8997 261.988L89.0061 261.952L87.1068 261.89L85.2027 261.799L83.2949 261.679L81.3846 261.526L79.4728 261.34L77.5609 261.118L75.6503 260.859L73.7424 260.561L71.8387 260.223L69.9409 259.844L68.0504 259.421L66.1691 258.954L64.2986 258.442L62.4406 257.884L60.5969 257.279L58.7693 256.627L56.9596 255.926L55.1695 255.177L53.4008 254.379L51.6552 253.533L49.9342 252.638L48.2394 251.695L46.5722 250.704L44.9339 249.666L43.3257 248.583L41.7488 247.454L40.2041 246.282L38.6926 245.068L37.2148 243.812L35.7716 242.517L34.3634 241.184L32.9905 239.815L31.6532 238.411L30.3517 236.975L29.0859 235.507L27.8558 234.011L26.6611 232.487L25.5016 230.938L24.3768 229.366L23.2862 227.772L22.2292 226.157L21.2052 224.525L20.2134 222.876L19.2531 221.212L18.3234 219.535L17.4234 217.846L16.5523 216.147L15.7092 214.439L14.8931 212.722L14.1031 210.999L13.3384 209.27L12.5981 207.537L11.8813 205.799L11.1874 204.058L10.5157 202.315L9.86538 200.57L9.23609 198.823L8.62731 197.075L8.03872 195.326L7.47007 193.577L6.92123 191.827L6.3921 190.077L5.88264 188.326L5.39284 186.576L4.92273 184.825L4.47241 183.074L4.04199 181.323L3.63163 179.572L3.24152 177.821L2.87189 176.071L2.52299 174.32L2.19512 172.57L1.88857 170.82L1.60367 169.07L1.34077 167.321L1.1002 165.573L0.882349 163.825L0.687567 162.078L0.516224 160.333L0.368683 158.588L0.2453 156.845L0.146419 155.104L0.0723705 153.365L0.0234671 151.628L0 149.894L0.00223642 148.163L0.0304166 146.435L0.0847515 144.711L0.16542 142.992L0.272567 141.276L0.406304 139.566L0.566702 137.861L0.753796 136.162L0.967583 134.47L1.20802 132.784L1.47502 131.105L1.76848 129.434L2.08834 127.772L2.43456 126.117L2.80716 124.472L3.20621 122.837L3.63177 121.212L4.08397 119.597L4.56292 117.993L5.06876 116.401L5.60163 114.821L6.16169 113.254L6.74906 111.7L7.36387 110.16L8.00623 108.635L8.67624 107.125L9.37395 105.631L10.0994 104.153L10.8526 102.693L11.6334 101.25L12.4419 99.8265L13.2778 98.4218L14.141 97.037L15.0313 95.6728L15.9483 94.3299L16.8917 93.0088L17.8611 91.7102L18.856 90.4347L19.8759 89.1829L20.9202 87.9553L21.9881 86.7524L23.0791 85.5747L24.1923 84.4226L25.3268 83.2964L26.4816 82.1965L27.656 81.1231L28.8486 80.0764L30.0586 79.0566L31.2846 78.0635L32.5255 77.0973L33.78 76.1577L35.0468 75.2445L36.3244 74.3575L37.6115 73.4962L38.9066 72.6602L40.2083 71.8488L41.5152 71.0615L42.826 70.2975L44.1394 69.5562L45.4539 68.8366L46.7684 68.138L48.0817 67.4594L49.3926 66.7998L50.7 66.1582L52.0028 65.5337L53.3001 64.925L54.5909 64.3311L55.8744 63.7508L57.1498 63.1829L58.4163 62.6264L59.6734 62.0798L60.9204 61.5421L62.1569 61.0121L63.3825 60.4884L64.5967 59.97L65.7994 59.4555L66.9904 58.9439L68.1695 58.434L69.3367 57.9246L70.4921 57.4146L71.6357 56.9029L72.7678 56.3885L73.8887 55.8704L74.9985 55.3477L76.0978 54.8194L77.187 54.2847L78.2666 53.7427L79.3371 53.1928L80.3992 52.6341L81.4536 52.0663L82.5009 51.4885L83.5419 50.9002L84.5772 50.3009L85.6077 49.6901L86.6341 49.067L87.6571 48.4313L88.6776 47.7823L89.6964 47.1197L90.7143 46.4429L91.7321 45.7515L92.7508 45.0451L93.7713 44.3235L94.7945 43.5862L95.8213 42.8331L96.8527 42.064L97.8898 41.2788L98.9334 40.4774L99.9847 39.6598L101.045 38.8262L102.114 37.9766L103.195 37.1114L104.287 36.2309L105.392 35.3354L106.511 34.4256L107.645 33.5019L108.795 32.5651L109.962 31.616L111.147 30.6553L112.351 29.684L113.575 28.7032L114.819 27.714L116.085 26.7176L117.373 25.7152L118.684 24.7083L120.02 23.6982L121.379 22.6864L122.764 21.6746L124.174 20.6644L125.61 19.6573L127.072 18.6553L128.561 17.66L130.077 16.6732L131.62 15.6968L133.19 14.7326L134.786 13.7826L136.41 12.8486L138.061 11.9327L139.737 11.0366L141.44 10.1625L143.169 9.31216L144.922 8.48762L146.7 7.69076L148.502 6.92349L150.326 6.18766L152.173 5.4851L154.041 4.8176L155.929 4.18688L157.836 3.59463L159.761 3.04246L161.703 2.53193L163.66 2.06451L165.631 1.6416L167.615 1.26452L169.61 0.934501L171.615 0.65269L173.629 0.420133L175.649 0.237784L177.674 0.106496L179.703 0.0270182L181.734 0L183.765 0.0259835L185.796 0.105405L187.823 0.238596L189.847 0.425778L191.864 0.667069L193.874 0.962481L195.875 1.31192L197.865 1.7152L199.844 2.172L201.81 2.68193L203.761 3.24444L205.696 3.85886L207.614 4.52442L209.514 5.24025L211.395 6.00537L213.256 6.81873L215.096 7.67918L216.915 8.58551L218.712 9.53646L220.486 10.5307L222.236 11.5668L223.964 12.6435L225.667 13.7592L227.347 14.9125L229.002 16.102L230.634 17.3261L232.242 18.5834L233.826 19.8724L235.386 21.1916L236.924 22.5397L238.438 23.9152L239.931 25.3168L241.401 26.7432L242.851 28.1931L244.28 29.6652L245.688 31.1584L247.078 32.6717L248.449 34.2039L249.802 35.7542L251.138 37.3215L252.458 38.9052L253.762 40.5044L255.051 42.1185L256.326 43.7469L257.588 45.3891L258.837 47.0447L260.073 48.7133L261.298 50.3946L262.512 52.0884L263.715 53.7947L264.908 55.5133L266.091 57.2442L267.263 58.9876L268.427 60.7434L269.58 62.5119L270.725 64.2932L271.859 66.0875L272.985 67.895L274.101 69.7159L275.207 71.5506L276.303 73.3993L277.389 75.2623L278.465 77.1399L279.529 79.0324L280.582 80.9402L281.623 82.8634L282.651 84.8026L283.666 86.7578L284.667 88.7294L285.653 90.7177L286.623 92.7228L287.577 94.745L288.513 96.7844L289.431 98.8412L290.33 100.915L291.208 103.007L292.064 105.116L292.898 107.243L293.707 109.388L294.492 111.549L295.25 113.728L295.98 115.924L296.682 118.136L297.354 120.365L297.994 122.609L298.602 124.87L299.176 127.145L299.715 129.434" fill="url(#paint0_linear_6_4)"/>
<defs>
<linearGradient id="paint0_linear_6_4" x1="-788.011" y1="588.504" x2="-953.985" y2="366.263" gradientUnits="userSpaceOnUse">
<stop stop-color="#FFCC00"/>
<stop offset="1" stop-color="#1F4D12"/>
</linearGradient>
</defs>
</svg>
